<svg width="45" height="45" viewBox="0 0 45 45" fill="none" xmlns="http://www.w3.org/2000/svg">
<circle cx="22.5" cy="22.5" r="22" fill="#645246" stroke="#645246"/>
<path d="M34.3289 20.6397L22.4516 32.8142C20.1471 35.1693 16.3984 35.1693 14.095 32.8142C11.7916 30.459 11.7905 26.6248 14.095 24.2685L26.6554 11.4777C28.0381 10.0639 30.2871 10.0639 31.6698 11.4777C33.0514 12.8915 33.0525 15.1899 31.6698 16.6037L21.6161 26.8315C21.1552 27.3027 20.4059 27.3027 19.945 26.8315C19.4841 26.3602 19.4841 25.5941 19.945 25.1228L28.3276 16.6037L26.6554 14.895L18.2727 23.4129C16.8876 24.8292 16.8888 27.1263 18.2727 28.5413C19.6566 29.9563 21.9021 29.9563 23.286 28.5413L33.3397 18.3136C34.4944 17.133 35.0699 15.5874 35.0699 14.0407C35.0699 10.6947 32.4155 8 29.1608 8C27.6481 8 26.1365 8.58969 24.9819 9.77028L12.4227 22.5586C10.8084 24.2117 10 26.3759 10 28.5413C10 33.2093 13.6991 37 18.2727 37C20.3905 37 22.5072 36.1735 24.1227 34.5228L36 22.3483L34.3289 20.6397Z" fill="white"/>
</svg>
