<svg width="45" height="45" viewBox="0 0 45 45" fill="none" xmlns="http://www.w3.org/2000/svg">
<circle cx="22.5" cy="22.5" r="22" fill="white" stroke="#645246"/>
<path d="M18.6302 23.7625L26.6544 15.6089L27.6271 16.6028L19.5886 24.7721L19.5875 24.7732C18.9366 25.4388 18.9366 26.5155 19.5875 27.1811C20.2444 27.8527 21.3161 27.8529 21.9732 27.1814C21.9733 27.1813 21.9734 27.1812 21.9736 27.1811L32.0264 16.9542L32.0273 16.9533C33.6002 15.345 33.5986 12.7362 32.0274 11.1283L32.0273 11.1281C30.4485 9.51388 27.877 9.51379 26.2982 11.1279C26.2981 11.1279 26.298 11.128 26.2979 11.1281L13.7382 23.9181L13.7375 23.9189C11.2429 26.4696 11.2442 30.6144 13.7375 33.1638C16.2371 35.7195 20.3084 35.7193 22.809 33.1639L22.8095 33.1633L34.3294 21.3552L35.301 22.3488L23.7654 34.1731C23.7652 34.1733 23.7651 34.1734 23.7649 34.1736C22.246 35.7253 20.2595 36.5 18.2727 36.5C13.986 36.5 10.5 32.944 10.5 28.5413C10.5 26.5 11.2617 24.4634 12.7799 22.9085C12.7801 22.9083 12.7803 22.9081 12.7804 22.9079L25.3386 10.1206L25.3394 10.1199C26.3974 9.03811 27.7789 8.5 29.1608 8.5C32.1301 8.5 34.5699 10.9614 34.5699 14.0407C34.5699 15.4638 34.0407 16.8815 32.9826 17.9636C32.9825 17.9637 32.9824 17.9638 32.9823 17.964L22.9294 28.1908L22.9285 28.1917C21.7408 29.4062 19.818 29.4062 18.6302 28.1917C17.4364 26.9711 17.4353 24.9849 18.6297 23.7631C18.6298 23.7629 18.63 23.7627 18.6302 23.7625Z" fill="#645246" stroke="#645246"/>
</svg>
