<svg width="38" height="29" viewBox="0 0 38 29" fill="none" xmlns="http://www.w3.org/2000/svg">
<path d="M7.88382 8.6722C7.88382 7.41079 8.98755 6.30705 10.249 6.30705C11.5104 6.30705 12.6141 7.41079 12.6141 8.6722C12.6141 9.93361 11.5104 11.0373 10.249 11.0373C8.98755 11.0373 7.88382 9.93361 7.88382 8.6722ZM21.2863 10.722L18.6058 14.9793C18.2905 15.4523 17.6598 15.61 17.3444 15.1369L14.9793 13.2448C14.5062 12.9295 14.0332 13.0871 13.7178 13.4025L8.82988 20.6556C8.35685 21.2863 8.82988 22.0747 9.61826 22.0747H28.3817C29.0124 22.0747 29.4855 21.2863 29.1701 20.6556L22.8631 10.5643C22.5477 10.0913 21.6017 10.0913 21.2863 10.722ZM34.6888 4.09959V24.4398C34.6888 24.9129 34.2158 25.3859 33.7427 25.3859H4.09959C3.62656 25.2282 3.15353 24.7552 3.15353 24.2822V4.09959C3.15353 3.62656 3.62656 3.15353 4.09959 3.15353H33.9004C34.2158 3.15353 34.6888 3.62656 34.6888 4.09959ZM36.8963 0H0.946058C0.473029 0 0 0.473029 0 0.946058V27.5934C0 27.9087 0.473029 28.3817 0.946058 28.3817H37.0539C37.527 28.3817 38 27.9087 38 27.4357V0.946058C37.8423 0.473029 37.3693 0 36.8963 0Z" fill="white"/>
</svg>
