<svg width="38" height="38" viewBox="0 0 38 38" fill="none" xmlns="http://www.w3.org/2000/svg">
<path d="M14.246 22.1435C14.2618 23.8914 12.8526 25.3227 11.1015 25.3338C9.35185 25.348 7.92684 23.9405 7.91734 22.1926C7.9015 20.4431 9.3091 19.0182 11.0555 19.0008C12.8067 18.9897 14.2365 20.3988 14.246 22.1435ZM12.6975 15.8327C10.9494 15.8453 9.5181 14.4394 9.50702 12.6868C9.49277 10.9404 10.8956 9.51394 12.6484 9.50286C14.3932 9.48702 15.8277 10.8914 15.8341 12.6409C15.8531 14.3935 14.4407 15.8168 12.6975 15.8327ZM25.3342 9.47752C25.3405 11.2223 23.9392 12.6567 22.1912 12.6678C20.44 12.6836 19.0119 11.2761 19.0008 9.52819C18.9834 7.77712 20.391 6.35219 22.1437 6.33794C23.887 6.32844 25.3183 7.73279 25.3342 9.47752ZM6.33399 34.5673C13.5968 35.1689 10.9954 27.4553 17.7151 27.3841L20.6253 29.8128C21.3505 38.5792 10.6264 40.5345 6.33399 34.5673ZM28.6038 23.3024C30.8632 19.7576 37.86 7.86894 37.86 7.86894C38.419 6.88258 37.1808 5.85347 36.3163 6.58176C36.3163 6.58176 25.9105 15.6284 22.8404 18.4957C20.4147 20.7629 20.4036 21.7984 19.6183 25.5364L22.2783 27.753C25.8044 26.3043 26.8193 26.1064 28.6038 23.3024ZM8.61876 30.9115C5.31906 28.03 3.20371 23.8202 3.16729 19.1211C3.09763 10.3974 10.1435 3.24111 18.8741 3.16986C24.951 3.13662 29.1326 6.18595 29.1595 8.62732L31.7926 6.32211C30.1935 2.80255 25.1711 -0.0821266 18.8472 0.00178558C8.36067 0.0888642 -0.081737 8.65582 0.000597134 19.1464C0.0370141 23.7568 1.71536 27.9651 4.47039 31.2345C5.98724 32.0135 7.83184 31.7554 8.61876 30.9115ZM28.8809 27.8939C30.5576 31.0129 26.7418 33.2294 23.2679 34.2142C22.7866 35.6581 21.9965 36.939 21.0924 37.8731C29.4129 36.9374 35.4391 31.0588 31.0136 25.3828C30.2869 26.4674 29.5934 27.278 28.8809 27.8939Z" fill="white"/>
</svg>
