<svg width="24" height="24" viewBox="0 0 24 24" fill="none" xmlns="http://www.w3.org/2000/svg">
<path d="M12 9.22892C12.234 8.10892 13.547 2.99992 17.382 2.99992C19.602 2.99992 22 4.55092 22 8.00292C22 11.9099 18.373 16.4729 12 20.6319C5.627 16.4729 2 11.9099 2 8.00292C2 4.51892 4.369 2.99792 6.577 2.99792C10.5 2.99792 11.722 8.12392 12 9.22892ZM0 8.00292C0 12.0709 3.06 17.4839 12 22.9999C20.94 17.4839 24 12.0709 24 8.00292C24 0.0409231 14.352 -1.02508 12 4.26592C9.662 -0.996078 0 -0.00407696 0 8.00292Z" fill="#645246"/>
</svg>
