<svg width="35" height="35" viewBox="0 0 35 35" fill="none" xmlns="http://www.w3.org/2000/svg">
<path fill-rule="evenodd" clip-rule="evenodd" d="M10.22 33.4163C4.19125 30.6513 0 24.5613 0 17.5C0 7.84146 7.84146 0 17.5 0C27.1585 0 35 7.84146 35 17.5C35 23.9735 31.4781 29.6304 26.2471 32.6579C26.25 24.7858 26.2529 13.9781 26.2442 12.7006C26.2398 12.0998 25.8067 11.6667 25.2627 11.6667C23.3713 11.6667 20.5742 19.2063 19.6 27.7083C21.1735 27.704 22.5983 27.7083 22.5983 27.7083V34.2446C20.984 34.736 19.2733 35 17.5 35C16.2575 35 15.0456 34.8702 13.8775 34.6238V25.7338C13.8775 24.8806 14.4025 24.6181 15.556 23.7052C16.4223 23.0198 17.0377 21.9377 16.9196 20.8425C16.5827 17.7494 15.7631 11.6667 15.7631 11.6667H15.0952V18.9583H13.8775L13.6354 11.6667H12.9515L12.6583 18.9583H11.4392L11.2292 11.6667H10.4912L10.22 18.9583H9.00083V11.6667H8.27167C8.27167 11.6667 7.52938 17.7888 7.22458 20.8717C7.11667 21.9523 7.7 23.014 8.54729 23.6935C9.695 24.6123 10.22 24.8879 10.22 25.7279V33.4163V33.4163Z" fill="#645246"/>
</svg>
