<svg width="24" height="24" viewBox="0 0 24 24" fill="none" xmlns="http://www.w3.org/2000/svg">
<g clip-path="url(#clip0)">
<path d="M5 8.5C5 7.7 5.7 7 6.5 7C7.3 7 8 7.7 8 8.5C8 9.3 7.3 10 6.5 10C5.7 10 5 9.3 5 8.5ZM13.5 9.8L11.8 12.5C11.6 12.8 11.2 12.9 11 12.6L9.5 11.4C9.2 11.2 8.9 11.3 8.7 11.5L5.6 16.1C5.3 16.5 5.6 17 6.1 17H18C18.4 17 18.7 16.5 18.5 16.1L14.5 9.7C14.3 9.4 13.7 9.4 13.5 9.8ZM22 5.6V18.5C22 18.8 21.7 19.1 21.4 19.1H2.6C2.3 19 2 18.7 2 18.4V5.6C2 5.3 2.3 5 2.6 5H21.5C21.7 5 22 5.3 22 5.6ZM23.4 3H0.6C0.3 3 0 3.3 0 3.6V20.5C0 20.7 0.3 21 0.6 21H23.5C23.8 21 24.1 20.7 24.1 20.4V3.6C24 3.3 23.7 3 23.4 3Z" fill="#645246"/>
</g>
<defs>
<clipPath id="clip0">
<rect width="24" height="24" fill="white"/>
</clipPath>
</defs>
</svg>
